<svg width="478" height="266" viewBox="0 0 478 266" fill="none" xmlns="http://www.w3.org/2000/svg">
	<path d="M16.9666 212.608H6.25081C3.4443 212.608 1.27563 210.324 1.27563 207.658V200.171C1.27563 197.379 3.57187 195.221 6.25081 195.221H16.839V212.608H16.9666Z" fill="white" />
	<path d="M18.2423 213.877H6.25087C2.80651 213.877 0 211.085 0 207.658V200.171C0 196.744 2.80651 193.952 6.25087 193.952H18.1148V213.877H18.2423ZM6.25087 196.49C4.20977 196.49 2.55137 198.14 2.55137 200.171V207.658C2.55137 209.689 4.20977 211.339 6.25087 211.339H15.5634V196.49H6.25087Z" fill="#8C9798" />
	<path d="M109.581 201.059H109.326C110.347 204.486 110.857 208.039 110.857 211.72C118.001 211.72 107.668 211.72 121.445 211.72V82.1461C121.445 79.3541 119.149 77.1967 116.47 77.1967H39.6738C36.7397 77.1967 34.0608 79.1003 33.0402 81.8923L17.0942 126.818L13.2671 136.336V212.608H34.3159C34.4435 208.928 34.6986 203.851 35.5916 200.298C39.2911 185.323 55.7475 173.647 72.9693 173.647C90.7013 173.647 104.989 185.576 109.454 200.932H109.581V201.059Z" fill="white" />
	<path d="M35.4641 213.877H11.9915V136.082L15.9461 126.437L31.8922 81.5115C33.0403 78.2119 36.2295 75.9276 39.8014 75.9276H116.598C120.042 75.9276 122.849 78.7195 122.849 82.1461V212.989H121.573L117.618 211.72L120.297 210.831V82.1461C120.297 80.1155 118.639 78.4657 116.598 78.4657H39.6739C37.2501 78.4657 35.0814 79.9886 34.1884 82.273L18.2423 127.199L14.5428 136.463V211.212H33.0403C33.1679 208.039 33.423 203.344 34.316 199.917C38.143 184.434 55.1097 172.378 72.9693 172.378C90.5738 172.378 105.754 183.673 110.73 200.678C111.623 203.851 112.133 207.151 112.26 210.45H113.791V212.989H109.709V211.72C109.709 208.293 109.199 204.866 108.306 201.44C103.586 185.576 89.4257 174.916 72.9693 174.916C56.2578 174.916 40.4393 186.211 36.8674 200.552C35.8468 204.486 35.5917 210.324 35.5917 212.608L35.4641 213.877Z" fill="#8C9798" />
	<path d="M101.545 99.5325C101.545 96.7405 99.2485 94.5831 96.5696 94.5831H46.4351C43.501 94.5831 40.6945 96.4867 39.674 99.2787L29.8512 126.183C28.9582 128.468 30.7441 130.879 33.1679 130.879H96.5696C99.3761 130.879 101.545 128.595 101.545 125.929V99.5325Z" fill="white" />
	<path d="M96.5696 132.021H33.168C31.6372 132.021 30.1063 131.26 29.2133 129.99C28.3204 128.721 28.0652 127.072 28.5755 125.676L38.5259 98.771C39.674 95.4714 42.8632 93.314 46.4351 93.314H96.5696C100.014 93.314 102.82 96.106 102.82 99.5325V125.803C102.82 129.229 100.014 132.021 96.5696 132.021ZM46.4351 95.8521C44.0113 95.8521 41.7151 97.375 40.9497 99.6594L31.1269 126.564C30.8717 127.199 30.9993 127.96 31.382 128.595C31.7647 129.229 32.5301 129.483 33.168 129.483H96.5696C98.6107 129.483 100.269 127.833 100.269 125.803V99.5325C100.269 97.5019 98.6107 95.8521 96.5696 95.8521H46.4351Z" fill="#8C9798" />
	<path d="M101.8 139.382C101.8 141.666 100.014 143.443 97.7177 143.443H89.4257C87.1295 143.443 85.3435 141.666 85.3435 139.382C85.3435 137.097 87.1295 135.321 89.4257 135.321H97.7177C100.014 135.321 101.8 137.224 101.8 139.382Z" fill="white" />
	<path d="M97.7177 144.839H89.4258C86.4917 144.839 84.0679 142.428 84.0679 139.509C84.0679 136.59 86.4917 134.178 89.4258 134.178H97.7177C100.652 134.178 103.076 136.59 103.076 139.509C103.076 142.428 100.652 144.839 97.7177 144.839ZM89.4258 136.59C87.8949 136.59 86.6192 137.859 86.6192 139.382C86.6192 140.905 87.8949 142.174 89.4258 142.174H97.7177C99.2485 142.174 100.524 140.905 100.524 139.382C100.524 137.859 99.2485 136.59 97.7177 136.59H89.4258Z" fill="#8C9798" />
	<path d="M26.4067 198.267H25.0035C21.0488 198.267 17.8596 195.095 17.8596 191.16V136.082L17.9872 135.828L32.6576 93.6947C33.9333 90.0144 37.3776 87.6031 41.3323 87.6031H103.203C107.158 87.6031 110.347 90.7758 110.347 94.71V162.86C110.347 166.794 107.158 169.967 103.203 169.967H70.2904C55.1097 169.967 40.1841 179.358 34.8263 192.303C33.423 195.983 30.1062 198.267 26.4067 198.267ZM20.411 136.59V191.16C20.411 193.699 22.4521 195.729 25.0035 195.729H26.4067C28.9581 195.729 31.3819 193.952 32.53 191.414C38.143 177.581 54.0891 167.555 70.2904 167.555H103.203C105.754 167.555 107.796 165.525 107.796 162.987V94.71C107.796 92.1718 105.754 90.1413 103.203 90.1413H41.3323C38.5258 90.1413 35.9744 91.918 35.0814 94.5831L20.411 136.59Z" fill="#8C9798" />
	<path d="M6.25073 195.221H13.3946V178.596H11.2259C8.4194 178.596 6.25073 180.754 6.25073 183.546V195.221Z" fill="white" />
	<path d="M14.5428 196.491H4.9751V183.546C4.9751 181.896 5.61294 180.246 6.76106 179.104C7.90918 177.962 9.56757 177.327 11.226 177.327H14.5428V196.491ZM7.52647 193.952H12.1189V179.865H11.226C10.2054 179.865 9.31243 180.246 8.54702 180.881C7.78161 181.642 7.3989 182.531 7.3989 183.546V193.952H7.52647Z" fill="#8C9798" />
	<path d="M434.627 161.083H153.465V173.139H434.627V161.083Z" fill="white" />
	<path d="M435.902 174.535H152.189V159.941H435.902V174.535ZM154.741 171.997H433.351V162.479H154.741V171.997Z" fill="#8C9798" />
	<path d="M443.301 187.607H451.083C453.889 187.607 456.058 189.891 456.058 192.556V193.572C456.058 196.364 453.762 198.521 451.083 198.521H443.301V187.607Z" fill="white" />
	<path d="M451.21 199.79H442.153V186.338H451.21C454.655 186.338 457.461 189.13 457.461 192.556V193.572C457.461 196.998 454.655 199.79 451.21 199.79ZM444.577 197.252H451.083C453.124 197.252 454.782 195.602 454.782 193.572V192.556C454.782 190.526 453.124 188.876 451.083 188.876H444.577V197.252Z" fill="#8C9798" />
	<path d="M445.215 170.982C411.537 170.982 146.704 170.982 121.573 170.982V211.72C147.852 211.72 259.092 211.72 264.067 211.72V211.593C264.067 190.78 281.034 173.774 302.083 173.774C321.473 173.774 339.46 188.368 340.098 211.72H352.345V211.593C352.345 190.907 369.311 173.774 390.36 173.774C409.751 173.774 427.738 188.368 428.376 211.846H450.318V176.058C450.318 173.139 448.021 170.982 445.215 170.982Z" fill="white" />
	<path d="M451.593 212.989H427.1V211.72C426.59 193.952 413.578 174.916 390.36 174.916C370.077 174.916 353.621 191.287 353.621 211.466V212.735L352.345 212.862H338.823V211.593C338.312 193.825 325.3 174.916 302.083 174.916C281.799 174.916 265.343 191.287 265.343 211.466V212.862H120.297V169.586H445.215C448.659 169.586 451.466 172.378 451.466 175.804V212.989H451.593ZM429.524 210.45H449.042V175.931C449.042 173.901 447.384 172.251 445.342 172.251H122.849V210.45H262.792C263.429 189.384 280.779 172.505 302.083 172.505C320.325 172.505 339.971 185.83 341.246 210.45H351.069C351.707 189.384 369.056 172.505 390.36 172.505C411.664 172.505 428.248 188.749 429.524 210.45Z" fill="#8C9798" />
	<path d="M441.643 163.494H160.737C140.708 163.494 124.507 147.25 124.507 127.452V92.2987C124.507 72.3741 140.836 56.2567 160.737 56.2567H441.77C461.799 56.2567 478 72.501 478 92.2987V127.325C478 147.377 461.671 163.494 441.643 163.494ZM160.737 58.7949C142.112 58.7949 127.058 73.897 127.058 92.2987V127.325C127.058 145.854 142.239 160.829 160.737 160.829H441.77C460.395 160.829 475.449 145.727 475.449 127.325V92.2987C475.449 73.7701 460.268 58.7949 441.77 58.7949H160.737Z" fill="#8C9798" />
	<path d="M262.69 58.7949H216V57.5258C216 51.5611 220.975 46.6117 226.971 46.6117H251.719C257.715 46.6117 262.69 51.5611 262.69 57.5258V58.7949ZM218.679 56.2567H260.011C259.373 52.1957 255.929 49.1499 251.719 49.1499H226.971C222.761 49.1499 219.317 52.1957 218.679 56.2567Z" fill="#8C9798" />
	<path d="M456.441 216.034C456.441 218.826 454.144 220.984 451.466 220.984H442.025C439.219 220.984 437.05 218.699 437.05 216.034V207.532C437.05 204.74 439.347 202.582 442.025 202.582H451.466C454.272 202.582 456.441 204.866 456.441 207.532V216.034Z" fill="white" />
	<path d="M451.466 222.253H442.026C438.581 222.253 435.775 219.461 435.775 216.034V207.531C435.775 204.105 438.581 201.313 442.026 201.313H451.466C454.91 201.313 457.716 204.105 457.716 207.531V216.034C457.716 219.461 454.91 222.253 451.466 222.253ZM442.026 203.851C439.984 203.851 438.326 205.501 438.326 207.531V216.034C438.326 218.065 439.984 219.715 442.026 219.715H451.466C453.507 219.715 455.165 218.065 455.165 216.034V207.531C455.165 205.501 453.507 203.851 451.466 203.851H442.026Z" fill="#8C9798" />
	<path d="M198.114 218.826C198.114 221.618 195.818 223.776 193.139 223.776H134.585C131.779 223.776 129.61 221.492 129.61 218.826V184.054C129.61 181.262 131.906 179.104 134.585 179.104H193.139C195.946 179.104 198.114 181.388 198.114 184.054V218.826Z" fill="white" />
	<path d="M193.139 225.172H134.585C131.141 225.172 128.334 222.38 128.334 218.953V184.18C128.334 180.754 131.141 177.962 134.585 177.962H193.139C196.583 177.962 199.39 180.754 199.39 184.18V218.953C199.39 222.253 196.583 225.172 193.139 225.172ZM134.585 180.373C132.544 180.373 130.886 182.023 130.886 184.054V218.826C130.886 220.857 132.544 222.507 134.585 222.507H193.139C195.18 222.507 196.839 220.857 196.839 218.826V184.054C196.839 182.023 195.18 180.373 193.139 180.373H134.585Z" fill="#8C9798" />
	<path d="M184.337 224.41C184.337 226.06 182.933 227.456 181.275 227.456C179.617 227.456 178.213 226.06 178.213 224.41V179.231C178.213 177.581 179.617 176.185 181.275 176.185C182.933 176.185 184.337 177.581 184.337 179.231V224.41Z" fill="white" />
	<path d="M181.275 228.725C178.851 228.725 176.938 226.822 176.938 224.41V179.231C176.938 176.82 178.851 174.916 181.275 174.916C183.699 174.916 185.612 176.82 185.612 179.231V224.41C185.612 226.822 183.699 228.725 181.275 228.725ZM181.275 177.454C180.255 177.454 179.489 178.216 179.489 179.231V224.41C179.489 225.426 180.255 226.187 181.275 226.187C182.296 226.187 183.061 225.426 183.061 224.41V179.231C183.061 178.216 182.296 177.454 181.275 177.454Z" fill="#8C9798" />
	<path d="M166.86 224.41C166.86 226.06 165.457 227.456 163.798 227.456C162.14 227.456 160.737 226.06 160.737 224.41V179.231C160.737 177.581 162.14 176.185 163.798 176.185C165.457 176.185 166.86 177.581 166.86 179.231V224.41Z" fill="white" />
	<path d="M163.798 228.725C161.374 228.725 159.461 226.822 159.461 224.41V179.231C159.461 176.82 161.374 174.916 163.798 174.916C166.222 174.916 168.136 176.82 168.136 179.231V224.41C168.136 226.822 166.222 228.725 163.798 228.725ZM163.798 177.454C162.778 177.454 162.012 178.216 162.012 179.231V224.41C162.012 225.426 162.778 226.187 163.798 226.187C164.819 226.187 165.584 225.426 165.584 224.41V179.231C165.584 178.216 164.819 177.454 163.798 177.454Z" fill="#8C9798" />
	<path d="M149.51 224.41C149.51 226.06 148.107 227.456 146.449 227.456C144.79 227.456 143.387 226.06 143.387 224.41V179.231C143.387 177.581 144.79 176.185 146.449 176.185C148.107 176.185 149.51 177.581 149.51 179.231V224.41Z" fill="white" />
	<path d="M146.449 228.725C144.025 228.725 142.112 226.822 142.112 224.41V179.231C142.112 176.82 144.025 174.916 146.449 174.916C148.873 174.916 150.786 176.82 150.786 179.231V224.41C150.786 226.822 148.745 228.725 146.449 228.725ZM146.449 177.454C145.428 177.454 144.663 178.216 144.663 179.231V224.41C144.663 225.426 145.428 226.187 146.449 226.187C147.469 226.187 148.235 225.426 148.235 224.41V179.231C148.235 178.216 147.342 177.454 146.449 177.454Z" fill="#8C9798" />
	<path d="M396.483 125.676C395.718 125.676 395.208 125.168 395.208 124.407V57.5258C395.208 56.7643 395.718 56.2567 396.483 56.2567C397.249 56.2567 397.759 56.7643 397.759 57.5258V124.407C397.759 125.168 397.249 125.676 396.483 125.676Z" fill="#8C9798" />
	<path d="M427.1 125.929C426.335 125.929 425.824 125.422 425.824 124.66V57.7796C425.824 57.0182 426.335 56.5106 427.1 56.5106C427.866 56.5106 428.376 57.0182 428.376 57.7796V124.66C428.376 125.422 427.738 125.929 427.1 125.929Z" fill="#8C9798" />
	<path d="M425.952 74.0239H397.121C396.356 74.0239 395.846 73.5163 395.846 72.7548C395.846 71.9934 396.356 71.4857 397.121 71.4857H425.952C426.717 71.4857 427.228 71.9934 427.228 72.7548C427.228 73.5163 426.59 74.0239 425.952 74.0239Z" fill="#8C9798" />
	<path d="M425.952 93.314H397.121C396.356 93.314 395.846 92.8064 395.846 92.0449C395.846 91.2835 396.356 90.7758 397.121 90.7758H425.952C426.717 90.7758 427.228 91.2835 427.228 92.0449C427.228 92.8064 426.59 93.314 425.952 93.314Z" fill="#8C9798" />
	<path d="M425.952 112.731H397.121C396.356 112.731 395.846 112.223 395.846 111.462C395.846 110.7 396.356 110.193 397.121 110.193H425.952C426.717 110.193 427.228 110.7 427.228 111.462C427.228 112.223 426.59 112.731 425.952 112.731Z" fill="#8C9798" />
	<path d="M104.734 211.466C104.734 229.36 90.191 243.827 72.2038 243.827C54.2167 243.827 39.6738 229.36 39.6738 211.466C39.6738 193.572 54.2167 179.104 72.2038 179.104C90.0635 179.104 104.734 193.572 104.734 211.466Z" fill="white" />
	<path d="M72.2039 245.096C53.5789 245.096 38.3982 229.994 38.3982 211.466C38.3982 192.937 53.5789 177.835 72.2039 177.835C90.8289 177.835 106.01 192.937 106.01 211.466C106.01 229.994 90.8289 245.096 72.2039 245.096ZM72.2039 180.373C54.9821 180.373 40.9496 194.333 40.9496 211.466C40.9496 228.598 54.9821 242.558 72.2039 242.558C89.4257 242.558 103.458 228.598 103.458 211.466C103.458 194.333 89.4257 180.373 72.2039 180.373Z" fill="#8C9798" />
	<path d="M94.1459 211.466C94.1459 223.522 84.3231 233.421 72.0765 233.421C59.9574 233.421 50.0071 223.649 50.0071 211.466C50.0071 199.409 59.8299 189.511 72.0765 189.511C84.3231 189.511 94.1459 199.409 94.1459 211.466Z" fill="white" />
	<path d="M72.204 234.69C59.3195 234.69 48.8589 224.283 48.8589 211.466C48.8589 198.648 59.3195 188.241 72.204 188.241C85.0884 188.241 95.549 198.648 95.549 211.466C95.4215 224.283 84.9608 234.69 72.204 234.69ZM72.204 190.78C60.7228 190.78 51.4103 200.044 51.4103 211.466C51.4103 222.887 60.7228 232.152 72.204 232.152C83.6851 232.152 92.9977 222.887 92.9977 211.466C92.8701 200.044 83.5576 190.78 72.204 190.78Z" fill="#8C9798" />
	<path d="M89.936 211.466C89.936 221.238 82.0268 229.106 72.204 229.106C62.3812 229.106 54.4719 221.238 54.4719 211.466C54.4719 201.694 62.3812 193.825 72.204 193.825C81.8992 193.825 89.936 201.694 89.936 211.466Z" fill="white" />
	<path d="M72.204 230.375C61.7434 230.375 53.1963 221.872 53.1963 211.466C53.1963 201.059 61.7434 192.556 72.204 192.556C82.6647 192.556 91.2118 201.059 91.2118 211.466C91.2118 221.872 82.6647 230.375 72.204 230.375ZM72.204 195.095C63.1466 195.095 55.7477 202.455 55.7477 211.466C55.7477 220.476 63.1466 227.837 72.204 227.837C81.2614 227.837 88.6604 220.476 88.6604 211.466C88.6604 202.455 81.2614 195.095 72.204 195.095Z" fill="#8C9798" />
	<path d="M82.4094 211.466C82.4094 217.05 77.8169 221.618 72.2039 221.618C66.5909 221.618 61.8708 217.05 61.8708 211.466C61.8708 205.882 66.4633 201.186 72.2039 201.186C77.8169 201.313 82.4094 205.882 82.4094 211.466Z" fill="white" />
	<path d="M72.204 223.014C65.8255 223.014 60.5952 217.811 60.5952 211.593C60.5952 205.374 65.8255 200.044 72.204 200.044C78.5824 200.044 83.6852 205.247 83.6852 211.593C83.6852 217.938 78.4548 223.014 72.204 223.014ZM72.204 202.582C67.2288 202.582 63.1466 206.643 63.1466 211.593C63.1466 216.542 67.2288 220.476 72.204 220.476C77.1791 220.476 81.1338 216.415 81.1338 211.593C81.1338 206.77 77.0516 202.582 72.204 202.582Z" fill="#8C9798" />
	<path d="M334.613 211.846C334.613 229.741 320.07 244.208 302.083 244.208C284.096 244.208 269.553 229.741 269.553 211.846C269.553 193.952 284.096 179.485 302.083 179.485C320.07 179.485 334.613 193.952 334.613 211.846Z" fill="white" />
	<path d="M302.083 245.477C283.458 245.477 268.277 230.375 268.277 211.846C268.277 193.318 283.458 178.216 302.083 178.216C320.708 178.216 335.889 193.318 335.889 211.846C335.889 230.375 320.708 245.477 302.083 245.477ZM302.083 180.754C284.861 180.754 270.828 194.714 270.828 211.846C270.828 228.979 284.861 242.939 302.083 242.939C319.305 242.939 333.337 228.979 333.337 211.846C333.337 194.587 319.305 180.754 302.083 180.754Z" fill="#8C9798" />
	<path d="M324.152 211.846C324.152 223.903 314.329 233.802 302.083 233.802C289.964 233.802 280.013 224.03 280.013 211.846C280.013 199.79 289.836 189.891 302.083 189.891C314.329 189.891 324.152 199.663 324.152 211.846Z" fill="white" />
	<path d="M302.083 234.944C289.198 234.944 278.738 224.537 278.738 211.72C278.738 198.902 289.198 188.495 302.083 188.495C314.967 188.495 325.428 198.902 325.428 211.72C325.428 224.537 314.967 234.944 302.083 234.944ZM302.083 191.16C290.602 191.16 281.289 200.425 281.289 211.846C281.289 223.268 290.602 232.533 302.083 232.533C313.564 232.533 322.877 223.268 322.877 211.846C322.877 200.425 313.564 191.16 302.083 191.16Z" fill="#8C9798" />
	<path d="M319.942 211.846C319.942 221.618 312.033 229.487 302.21 229.487C292.388 229.487 284.478 221.618 284.478 211.846C284.478 202.074 292.388 194.206 302.21 194.206C311.906 194.079 319.942 202.074 319.942 211.846Z" fill="white" />
	<path d="M302.083 230.756C291.622 230.756 283.075 222.253 283.075 211.846C283.075 201.44 291.622 192.937 302.083 192.937C312.543 192.937 321.09 201.44 321.09 211.846C321.218 222.253 312.671 230.756 302.083 230.756ZM302.083 195.348C293.025 195.348 285.626 202.709 285.626 211.72C285.626 220.73 293.025 228.091 302.083 228.091C311.14 228.091 318.539 220.73 318.539 211.72C318.667 202.709 311.268 195.348 302.083 195.348Z" fill="#8C9798" />
	<path d="M312.416 211.846C312.416 217.43 307.824 222.126 302.21 222.126C296.597 222.126 291.877 217.557 291.877 211.846C291.877 206.262 296.47 201.694 302.21 201.694C307.824 201.567 312.416 206.136 312.416 211.846Z" fill="white" />
	<path d="M302.083 223.268C295.704 223.268 290.474 218.065 290.474 211.719C290.474 205.374 295.704 200.298 302.083 200.298C308.461 200.298 313.564 205.501 313.564 211.719C313.564 217.938 308.461 223.268 302.083 223.268ZM302.083 202.836C297.108 202.836 293.025 206.897 293.025 211.719C293.025 216.542 297.108 220.73 302.083 220.73C307.058 220.73 311.013 216.669 311.013 211.719C311.013 206.77 307.058 202.836 302.083 202.836Z" fill="#8C9798" />
	<path d="M423.018 211.846C423.018 229.741 408.475 244.208 390.488 244.208C372.501 244.208 357.958 229.741 357.958 211.846C357.958 193.952 372.501 179.485 390.488 179.485C408.475 179.485 423.018 193.952 423.018 211.846Z" fill="white" />
	<path d="M390.488 245.477C371.863 245.477 356.682 230.375 356.682 211.846C356.682 193.318 371.863 178.216 390.488 178.216C409.113 178.216 424.294 193.318 424.294 211.846C424.294 230.375 409.113 245.477 390.488 245.477ZM390.488 180.754C373.266 180.754 359.234 194.714 359.234 211.846C359.234 228.979 373.266 242.939 390.488 242.939C407.71 242.939 421.742 228.979 421.742 211.846C421.742 194.587 407.71 180.754 390.488 180.754Z" fill="#8C9798" />
	<path d="M412.557 211.846C412.557 223.903 402.734 233.802 390.488 233.802C378.369 233.802 368.418 224.03 368.418 211.846C368.418 199.79 378.241 189.891 390.488 189.891C402.607 189.891 412.557 199.663 412.557 211.846Z" fill="white" />
	<path d="M390.488 234.944C377.603 234.944 367.143 224.537 367.143 211.72C367.143 198.902 377.603 188.495 390.488 188.495C403.372 188.495 413.833 198.902 413.833 211.72C413.833 224.537 403.372 234.944 390.488 234.944ZM390.488 191.16C379.007 191.16 369.694 200.425 369.694 211.846C369.694 223.268 379.007 232.533 390.488 232.533C401.969 232.533 411.282 223.268 411.282 211.846C411.282 200.425 401.969 191.16 390.488 191.16Z" fill="#8C9798" />
	<path d="M408.22 211.846C408.22 221.618 400.31 229.487 390.488 229.487C380.665 229.487 372.756 221.618 372.756 211.846C372.756 202.074 380.665 194.206 390.488 194.206C400.31 194.079 408.22 202.074 408.22 211.846Z" fill="white" />
	<path d="M390.488 230.756C380.027 230.756 371.48 222.253 371.48 211.846C371.48 201.44 380.027 192.937 390.488 192.937C400.948 192.937 409.495 201.44 409.495 211.846C409.495 222.253 400.948 230.756 390.488 230.756ZM390.488 195.348C381.43 195.348 374.031 202.709 374.031 211.72C374.031 220.73 381.43 228.091 390.488 228.091C399.545 228.091 406.944 220.73 406.944 211.72C406.944 202.709 399.545 195.348 390.488 195.348Z" fill="#8C9798" />
	<path d="M400.693 211.846C400.693 217.43 396.101 222.126 390.488 222.126C384.875 222.126 380.155 217.557 380.155 211.846C380.155 206.262 384.747 201.694 390.488 201.694C396.101 201.567 400.693 206.136 400.693 211.846Z" fill="white" />
	<path d="M390.488 223.268C384.109 223.268 378.879 218.065 378.879 211.719C378.879 205.374 384.109 200.298 390.488 200.298C396.866 200.298 401.969 205.501 401.969 211.719C401.969 217.938 396.866 223.268 390.488 223.268ZM390.488 202.836C385.513 202.836 381.431 206.897 381.431 211.719C381.431 216.542 385.513 220.73 390.488 220.73C395.463 220.73 399.418 216.669 399.418 211.719C399.418 206.77 395.463 202.836 390.488 202.836Z" fill="#8C9798" />
	<path d="M229 48.3802V21.1393" stroke="#8C9798" stroke-width="2" stroke-miterlimit="10" />
	<path d="M249.993 21.1393V48.3802" stroke="#8C9798" stroke-width="2" stroke-miterlimit="10" />
</svg>
