<svg width="194" height="22" viewBox="0 0 194 22" fill="none" xmlns="http://www.w3.org/2000/svg">
	<g clip-path="url(#clip0_80_697)">
		<path d="M22.6761 9.23261C23.0496 11.7122 22.4627 13.8225 20.8621 15.6691C19.2614 17.4628 17.1805 18.3597 14.7796 18.4125C12.6987 18.4652 10.8313 17.8849 9.23059 16.5659C6.98967 14.6667 6.13599 12.2398 6.50947 9.28537C6.2427 9.28537 6.02927 9.23261 5.81585 9.23261C4.74875 9.23261 3.62828 9.28537 2.56118 9.23261C0.907163 9.1271 0.00012207 10.3405 0.00012207 11.765C0.0534774 14.1918 0.00012207 16.6187 0.00012207 19.0983C0.00012207 20.8921 0.853807 21.7362 2.66789 21.7362C8.80375 21.7362 14.9396 21.7362 21.0221 21.7362C22.9429 21.7362 24.9171 21.7362 26.8379 21.7362C28.1717 21.7362 29.1321 20.8393 29.1855 19.5731C29.2388 16.8297 29.1855 14.1391 29.1855 11.3957C29.1855 10.3405 28.3852 9.39089 27.4248 9.33813C25.8775 9.17985 24.3302 9.23261 22.6761 9.23261ZM14.5661 16.5659C15.0463 16.5132 15.5265 16.4604 16.0067 16.4077C19.955 15.7218 22.0892 11.3957 20.1684 7.96642C18.7278 5.48681 17.1272 3.05995 15.6332 0.633091C15.0997 -0.158276 14.1393 -0.158276 13.6591 0.633091C12.1118 3.05995 10.5645 5.53957 9.07053 7.96642C8.32355 9.17985 8.16349 10.4988 8.48362 11.8705C9.12388 14.7194 11.5782 16.5132 14.5661 16.5659Z" fill="white" />
		<path d="M22.676 9.23262C24.3301 9.23262 25.8774 9.17986 27.4247 9.23262C28.3851 9.28538 29.1854 10.235 29.1854 11.2902C29.2388 14.0336 29.2388 16.7242 29.1854 19.4676C29.1854 20.7338 28.225 21.6307 26.8378 21.6307C24.917 21.6307 22.9428 21.6307 21.022 21.6307C14.8862 21.6307 8.7503 21.6307 2.6678 21.6307C0.853715 21.6307 2.93162e-05 20.7866 2.93162e-05 18.9928C2.93162e-05 16.566 0.0533847 14.1391 2.93162e-05 11.6595C-0.053326 10.2878 0.853715 9.02159 2.56109 9.1271C3.62819 9.17986 4.74865 9.1271 5.81576 9.1271C6.02918 9.1271 6.2426 9.1271 6.50938 9.17986C6.13589 12.1343 6.98958 14.5612 9.2305 16.4604C10.8312 17.7794 12.6986 18.3597 14.7795 18.307C17.2338 18.2542 19.2613 17.4101 20.862 15.5636C22.516 13.8753 23.0495 11.7122 22.676 9.23262Z" fill="white" />
		<path d="M14.566 16.5659C11.5247 16.5132 9.12374 14.6667 8.43012 11.8705C8.10999 10.4988 8.27006 9.1271 9.01703 7.96642C10.511 5.48681 12.0583 3.05995 13.6056 0.633091C14.1391 -0.158276 15.0995 -0.158276 15.5797 0.633091C17.127 3.05995 18.7277 5.48681 20.1149 7.96642C22.0891 11.3957 19.9015 15.7218 15.9532 16.4077C15.5264 16.4604 15.0462 16.5132 14.566 16.5659Z" fill="white" />
		<path d="M34.5742 19.0456L36.7084 7.06955H46.1523L45.6721 9.86571H40.1765L39.803 12.0288H44.1248L43.6446 14.8249H39.3228L38.5759 19.0456H34.5742Z" fill="white" />
		<path d="M45.6188 19.0456L47.1661 10.2878H50.6875L49.0869 19.0456H45.6188ZM47.8063 6.70024H51.3278L50.901 9.17986H47.3795L47.8063 6.70024Z" fill="white" />
		<path d="M51.2211 19.0456L53.3553 7.06955H56.8767L54.7425 19.0456H51.2211Z" fill="white" />
		<path d="M56.8234 19.0456L58.9576 7.06955H62.479L60.3448 19.0456H56.8234Z" fill="white" />
		<path d="M62.4257 19.0456L63.973 10.2878H67.4944L65.9471 19.0456H62.4257ZM64.6132 6.70024H68.1347L67.7078 9.17986H64.1864L64.6132 6.70024Z" fill="white" />
		<path d="M69.3619 10.2878H72.5632L72.2964 11.6595C73.2568 10.6043 74.2172 10.024 75.5511 10.024C77.8988 10.024 78.7524 11.3957 78.3256 13.7698L77.4186 18.9928H73.8971L74.6974 14.4029C74.8575 13.5588 74.7508 12.7674 73.737 12.7674C72.6699 12.7674 72.2431 13.4532 72.0297 14.5612L71.2293 18.9928H67.7079L69.3619 10.2878Z" fill="white" />
		<path d="M82.7008 19.4676C82.7008 19.5731 82.7008 19.7314 82.8608 19.8369C82.9675 19.9952 83.2343 20.048 83.5544 20.048C84.5682 20.048 85.0484 19.5731 85.2618 18.3597L85.3685 17.6211C84.7816 18.0959 83.9279 18.5708 82.6474 18.5708C80.1931 18.5708 79.126 16.6715 79.5528 14.4556C79.9263 12.2926 81.3669 10.024 84.3014 10.024C85.3685 10.024 86.2756 10.5516 86.7558 11.4484L86.9692 10.2878H90.0638L88.8366 17.3046C88.3564 19.9425 87.7162 21.9472 83.341 21.9472C80.2464 21.9472 79.1259 20.7338 79.1793 19.4149H82.7008V19.4676ZM83.1276 14.5084C82.9675 15.3525 83.2877 16.1966 84.1947 16.1966C85.2618 16.2494 85.8487 15.3525 86.0088 14.4029C86.1689 13.4532 85.9554 12.5036 84.835 12.5036C83.8212 12.5036 83.341 13.4005 83.1276 14.5084Z" fill="white" />
		<path d="M96.0929 19.0456L98.2271 7.06955H103.029L103.829 14.5612L107.298 7.06955H112.099L109.965 19.0456H106.39L107.031 15.4053L107.404 13.5588L107.991 11.3957H107.938L104.363 19.0983H101.588L100.842 11.3429H100.788L100.628 13.0839L100.361 14.9305L99.6143 18.9928H96.0929V19.0456Z" fill="white" />
		<path d="M118.182 10.0767C121.277 10.0767 122.877 11.8705 122.397 14.6139C121.81 17.8321 119.356 19.3093 116.528 19.3093C113.7 19.3093 111.779 17.7794 112.313 14.7722C112.9 11.765 115.194 10.0767 118.182 10.0767ZM115.888 14.6139C115.621 16.2494 116.101 16.988 117.008 16.988C117.969 16.988 118.662 16.2494 118.929 14.6139C119.142 13.3477 118.769 12.3453 117.862 12.3981C116.635 12.3981 116.048 13.6115 115.888 14.6139Z" fill="white" />
		<path d="M124.585 10.2878H127.786L127.519 11.6595C128.48 10.6043 129.44 10.024 130.774 10.024C133.122 10.024 133.975 11.3957 133.548 13.7698L132.641 18.9928H129.12L129.92 14.4029C130.08 13.5588 129.974 12.7674 128.96 12.7674C127.893 12.7674 127.466 13.4532 127.252 14.5612L126.452 18.9928H122.931L124.585 10.2878Z" fill="white" />
		<path d="M134.509 19.0456L136.056 10.2878H139.578L138.03 19.0456H134.509ZM136.696 6.70024H140.218L139.791 9.17986H136.27L136.696 6.70024Z" fill="white" />
		<path d="M145.713 19.0456C141.072 19.3094 140.591 18.9928 141.125 15.9856L141.765 12.3453H140.538L140.911 10.3405H142.192L142.672 7.64989H146.14L145.66 10.3405H147.367L146.994 12.3453H145.287L144.7 15.5108C144.54 16.3022 144.646 16.6187 145.607 16.6187H146.14L145.713 19.0456Z" fill="white" />
		<path d="M153.77 10.0767C156.865 10.0767 158.465 11.8705 157.985 14.6139C157.398 17.8321 154.944 19.3093 152.116 19.3093C149.288 19.3093 147.367 17.7794 147.901 14.7722C148.488 11.765 150.782 10.0767 153.77 10.0767ZM151.476 14.6139C151.209 16.2494 151.689 16.988 152.596 16.988C153.557 16.988 154.25 16.2494 154.517 14.6139C154.73 13.3477 154.357 12.3453 153.45 12.3981C152.223 12.3981 151.636 13.6115 151.476 14.6139Z" fill="white" />
		<path d="M160.226 10.2878H163.427L163.107 12.0288H163.161C163.908 10.6571 164.868 10.024 166.255 10.024C166.415 10.024 166.575 10.0767 166.682 10.0767L166.042 13.5588C165.828 13.506 165.562 13.4532 165.348 13.4532C163.908 13.4532 163.054 14.1391 162.734 15.9856L162.2 18.9928H158.679L160.226 10.2878Z" fill="white" />
		<path d="M166.362 19.0456L167.909 10.2878H171.431L169.883 19.0456H166.362ZM168.55 6.70024H172.071L171.644 9.17986H168.123L168.55 6.70024Z" fill="white" />
		<path d="M173.298 10.2878H176.499L176.233 11.6595C177.193 10.6043 178.153 10.024 179.487 10.024C181.835 10.024 182.689 11.3957 182.262 13.7698L181.355 18.9928H177.833L178.634 14.4029C178.794 13.5588 178.687 12.7674 177.673 12.7674C176.606 12.7674 176.179 13.4532 175.966 14.5612L175.165 18.9928H171.644L173.298 10.2878Z" fill="white" />
		<path d="M186.637 19.4676C186.637 19.5731 186.637 19.7314 186.797 19.8369C186.904 19.9952 187.17 20.048 187.491 20.048C188.504 20.048 188.985 19.5731 189.198 18.3597L189.305 17.6211C188.718 18.0959 187.864 18.5708 186.584 18.5708C184.129 18.5708 183.062 16.6715 183.489 14.4556C183.862 12.2926 185.303 10.024 188.238 10.024C189.305 10.024 190.212 10.5516 190.692 11.4484L190.905 10.2878H194L192.773 17.3046C192.293 19.9425 191.652 21.9472 187.277 21.9472C184.183 21.9472 183.062 20.7338 183.115 19.4149H186.637V19.4676ZM187.01 14.5084C186.85 15.3525 187.17 16.1966 188.077 16.1966C189.145 16.2494 189.732 15.3525 189.892 14.4029C190.052 13.4532 189.838 12.5036 188.718 12.5036C187.704 12.5036 187.224 13.4005 187.01 14.5084Z" fill="white" />
	</g>
	<defs>
		<clipPath id="clip0_80_697">
			<rect width="194" height="22" fill="white" />
		</clipPath>
	</defs>
</svg>
