<svg width="256" height="256" viewBox="0 0 256 256" fill="none" xmlns="http://www.w3.org/2000/svg">
	<path opacity="0.5" d="M86.8946 122.808C87.6386 122.808 88.2386 123.032 88.6946 123.48C89.1506 123.928 89.3786 124.632 89.3786 125.592V129H88.3946V125.652C88.3946 125.02 88.2506 124.54 87.9626 124.212C87.6746 123.876 87.2626 123.708 86.7266 123.708C86.1586 123.708 85.7066 123.908 85.3706 124.308C85.0426 124.708 84.8786 125.252 84.8786 125.94V129H83.8946V120.6H84.8786V123.888C85.0786 123.568 85.3426 123.308 85.6706 123.108C86.0066 122.908 86.4146 122.808 86.8946 122.808ZM93.4529 129.072C92.8609 129.072 92.3329 128.94 91.8689 128.676C91.4129 128.412 91.0569 128.044 90.8009 127.572C90.5449 127.1 90.4169 126.556 90.4169 125.94C90.4169 125.324 90.5449 124.78 90.8009 124.308C91.0569 123.836 91.4129 123.468 91.8689 123.204C92.3329 122.94 92.8609 122.808 93.4529 122.808C94.0449 122.808 94.5689 122.94 95.0249 123.204C95.4889 123.468 95.8489 123.836 96.1049 124.308C96.3609 124.78 96.4889 125.324 96.4889 125.94C96.4889 126.556 96.3609 127.1 96.1049 127.572C95.8489 128.044 95.4889 128.412 95.0249 128.676C94.5689 128.94 94.0449 129.072 93.4529 129.072ZM93.4529 128.196C93.8529 128.196 94.2049 128.1 94.5089 127.908C94.8209 127.716 95.0609 127.448 95.2289 127.104C95.3969 126.76 95.4809 126.372 95.4809 125.94C95.4809 125.508 95.3969 125.12 95.2289 124.776C95.0609 124.432 94.8209 124.164 94.5089 123.972C94.2049 123.78 93.8529 123.684 93.4529 123.684C93.0529 123.684 92.6969 123.78 92.3849 123.972C92.0809 124.164 91.8449 124.432 91.6769 124.776C91.5089 125.12 91.4249 125.508 91.4249 125.94C91.4249 126.372 91.5089 126.76 91.6769 127.104C91.8449 127.448 92.0809 127.716 92.3849 127.908C92.6969 128.1 93.0529 128.196 93.4529 128.196ZM97.9549 123.78H96.8509V122.88H97.9549V121.164H98.9389V122.88H100.487V123.78H98.9389V127.392C98.9389 127.648 98.9869 127.832 99.0829 127.944C99.1869 128.048 99.3629 128.1 99.6109 128.1H100.679V129H99.5509C98.9749 129 98.5629 128.872 98.3149 128.616C98.0749 128.36 97.9549 127.956 97.9549 127.404V123.78ZM101.379 121.164H102.363V122.88H103.911V123.78H102.363V127.392C102.363 127.648 102.411 127.832 102.507 127.944C102.611 128.048 102.787 128.1 103.035 128.1H104.103V129H102.975C102.399 129 101.987 128.872 101.739 128.616C101.499 128.36 101.379 127.956 101.379 127.404V121.164ZM104.433 125.94C104.433 125.316 104.553 124.768 104.793 124.296C105.041 123.824 105.385 123.46 105.825 123.204C106.265 122.94 106.769 122.808 107.337 122.808C107.897 122.808 108.393 122.924 108.825 123.156C109.257 123.388 109.597 123.724 109.845 124.164C110.093 124.604 110.225 125.12 110.241 125.712C110.241 125.8 110.233 125.94 110.217 126.132H105.465V126.216C105.481 126.816 105.665 127.296 106.017 127.656C106.369 128.016 106.829 128.196 107.397 128.196C107.837 128.196 108.209 128.088 108.513 127.872C108.825 127.648 109.033 127.34 109.137 126.948H110.133C110.013 127.572 109.713 128.084 109.233 128.484C108.753 128.876 108.165 129.072 107.469 129.072C106.861 129.072 106.329 128.944 105.873 128.688C105.417 128.424 105.061 128.056 104.805 127.584C104.557 127.104 104.433 126.556 104.433 125.94ZM109.221 125.316C109.173 124.796 108.977 124.392 108.633 124.104C108.297 123.816 107.869 123.672 107.349 123.672C106.885 123.672 106.477 123.824 106.125 124.128C105.773 124.432 105.573 124.828 105.525 125.316H109.221ZM114.471 122.88V123.84H113.979C113.395 123.84 112.975 124.036 112.719 124.428C112.471 124.82 112.347 125.304 112.347 125.88V129H111.363V122.88H112.215L112.347 123.804C112.523 123.524 112.751 123.3 113.031 123.132C113.311 122.964 113.699 122.88 114.195 122.88H114.471ZM118.92 123.78H117.816V122.88H118.92V121.164H119.904V122.88H121.452V123.78H119.904V127.392C119.904 127.648 119.952 127.832 120.048 127.944C120.152 128.048 120.328 128.1 120.576 128.1H121.644V129H120.516C119.94 129 119.528 128.872 119.28 128.616C119.04 128.36 118.92 127.956 118.92 127.404V123.78ZM125.344 122.808C126.088 122.808 126.688 123.032 127.144 123.48C127.6 123.928 127.828 124.632 127.828 125.592V129H126.844V125.652C126.844 125.02 126.7 124.54 126.412 124.212C126.124 123.876 125.712 123.708 125.176 123.708C124.608 123.708 124.156 123.908 123.82 124.308C123.492 124.708 123.328 125.252 123.328 125.94V129H122.344V120.6H123.328V123.888C123.528 123.568 123.792 123.308 124.12 123.108C124.456 122.908 124.864 122.808 125.344 122.808ZM134.806 128.1V129H134.266C133.874 129 133.594 128.92 133.426 128.76C133.258 128.6 133.17 128.364 133.162 128.052C132.69 128.732 132.006 129.072 131.11 129.072C130.43 129.072 129.882 128.912 129.466 128.592C129.058 128.272 128.854 127.836 128.854 127.284C128.854 126.668 129.062 126.196 129.478 125.868C129.902 125.54 130.514 125.376 131.314 125.376H133.114V124.956C133.114 124.556 132.978 124.244 132.706 124.02C132.442 123.796 132.07 123.684 131.59 123.684C131.166 123.684 130.814 123.78 130.534 123.972C130.262 124.156 130.094 124.404 130.03 124.716H129.046C129.118 124.116 129.382 123.648 129.838 123.312C130.302 122.976 130.902 122.808 131.638 122.808C132.422 122.808 133.026 123 133.45 123.384C133.882 123.76 134.098 124.304 134.098 125.016V127.656C134.098 127.952 134.234 128.1 134.506 128.1H134.806ZM133.114 126.204H131.218C130.306 126.204 129.85 126.544 129.85 127.224C129.85 127.528 129.97 127.772 130.21 127.956C130.45 128.14 130.774 128.232 131.182 128.232C131.782 128.232 132.254 128.076 132.598 127.764C132.942 127.444 133.114 127.024 133.114 126.504V126.204ZM138.563 122.808C139.307 122.808 139.903 123.032 140.351 123.48C140.807 123.928 141.035 124.632 141.035 125.592V129H140.051V125.652C140.051 125.02 139.907 124.54 139.619 124.212C139.339 123.876 138.931 123.708 138.395 123.708C137.819 123.708 137.367 123.908 137.039 124.308C136.711 124.708 136.547 125.252 136.547 125.94V129H135.563V122.88H136.415L136.547 123.708C137.011 123.108 137.683 122.808 138.563 122.808ZM150.698 122.88V129H149.846L149.714 128.184C149.25 128.776 148.598 129.072 147.758 129.072C147.03 129.072 146.446 128.848 146.006 128.4C145.566 127.952 145.346 127.248 145.346 126.288V122.88H146.33V126.228C146.33 126.86 146.466 127.344 146.738 127.68C147.018 128.008 147.414 128.172 147.926 128.172C148.486 128.172 148.922 127.972 149.234 127.572C149.554 127.172 149.714 126.628 149.714 125.94V122.88H150.698ZM152.807 126.984C152.823 127.352 152.983 127.652 153.287 127.884C153.599 128.116 153.999 128.232 154.487 128.232C154.919 128.232 155.267 128.148 155.531 127.98C155.803 127.804 155.939 127.576 155.939 127.296C155.939 127.056 155.875 126.872 155.747 126.744C155.619 126.616 155.451 126.528 155.243 126.48C155.043 126.432 154.755 126.384 154.379 126.336C153.851 126.272 153.419 126.188 153.083 126.084C152.747 125.98 152.475 125.816 152.267 125.592C152.059 125.36 151.955 125.044 151.955 124.644C151.955 124.284 152.055 123.964 152.255 123.684C152.463 123.404 152.743 123.188 153.095 123.036C153.447 122.876 153.843 122.796 154.283 122.796C155.003 122.796 155.587 122.964 156.035 123.3C156.491 123.636 156.743 124.116 156.791 124.74H155.807C155.767 124.42 155.611 124.156 155.339 123.948C155.067 123.74 154.727 123.636 154.319 123.636C153.903 123.636 153.567 123.724 153.311 123.9C153.055 124.068 152.927 124.292 152.927 124.572C152.927 124.78 152.987 124.94 153.107 125.052C153.227 125.164 153.379 125.24 153.563 125.28C153.755 125.32 154.043 125.364 154.427 125.412C154.963 125.476 155.403 125.564 155.747 125.676C156.099 125.788 156.379 125.968 156.587 126.216C156.803 126.464 156.911 126.8 156.911 127.224C156.911 127.592 156.803 127.916 156.587 128.196C156.371 128.476 156.079 128.692 155.711 128.844C155.343 128.996 154.935 129.072 154.487 129.072C153.687 129.072 153.043 128.888 152.555 128.52C152.075 128.152 151.831 127.64 151.823 126.984H152.807ZM163.295 122.88V129H162.443L162.311 128.184C161.847 128.776 161.195 129.072 160.355 129.072C159.627 129.072 159.043 128.848 158.603 128.4C158.163 127.952 157.943 127.248 157.943 126.288V122.88H158.927V126.228C158.927 126.86 159.063 127.344 159.335 127.68C159.615 128.008 160.011 128.172 160.523 128.172C161.083 128.172 161.519 127.972 161.831 127.572C162.151 127.172 162.311 126.628 162.311 125.94V122.88H163.295ZM170.361 128.1V129H169.821C169.429 129 169.149 128.92 168.981 128.76C168.813 128.6 168.725 128.364 168.717 128.052C168.245 128.732 167.561 129.072 166.665 129.072C165.985 129.072 165.437 128.912 165.021 128.592C164.613 128.272 164.409 127.836 164.409 127.284C164.409 126.668 164.617 126.196 165.033 125.868C165.457 125.54 166.069 125.376 166.869 125.376H168.669V124.956C168.669 124.556 168.533 124.244 168.261 124.02C167.997 123.796 167.625 123.684 167.145 123.684C166.721 123.684 166.369 123.78 166.089 123.972C165.817 124.156 165.649 124.404 165.585 124.716H164.601C164.673 124.116 164.937 123.648 165.393 123.312C165.857 122.976 166.457 122.808 167.193 122.808C167.977 122.808 168.581 123 169.005 123.384C169.437 123.76 169.653 124.304 169.653 125.016V127.656C169.653 127.952 169.789 128.1 170.061 128.1H170.361ZM168.669 126.204H166.773C165.861 126.204 165.405 126.544 165.405 127.224C165.405 127.528 165.525 127.772 165.765 127.956C166.005 128.14 166.329 128.232 166.737 128.232C167.337 128.232 167.809 128.076 168.153 127.764C168.497 127.444 168.669 127.024 168.669 126.504V126.204ZM171.117 120.6H172.101V129H171.117V120.6Z" fill="black" />
	<path d="M111.31 97.1008C112.318 97.3088 113.15 97.7648 113.806 98.4688C114.478 99.1728 114.814 100.117 114.814 101.301C114.814 102.229 114.558 103.053 114.046 103.773C113.55 104.477 112.814 105.029 111.838 105.429C110.878 105.813 109.718 106.005 108.358 106.005C106.998 106.005 105.83 105.813 104.854 105.429C103.894 105.029 103.158 104.477 102.646 103.773C102.15 103.053 101.902 102.229 101.902 101.301C101.902 100.133 102.23 99.1968 102.886 98.4928C103.542 97.7888 104.382 97.3248 105.406 97.1008C104.542 96.8608 103.822 96.4208 103.246 95.7808C102.67 95.1408 102.382 94.3248 102.382 93.3328C102.382 92.4528 102.614 91.6768 103.078 91.0048C103.558 90.3328 104.246 89.8128 105.142 89.4448C106.054 89.0768 107.126 88.8928 108.358 88.8928C109.59 88.8928 110.654 89.0768 111.55 89.4448C112.462 89.8128 113.15 90.3328 113.614 91.0048C114.094 91.6768 114.334 92.4528 114.334 93.3328C114.334 94.2608 114.038 95.0688 113.446 95.7568C112.87 96.4288 112.158 96.8768 111.31 97.1008ZM108.358 91.3408C107.59 91.3408 106.966 91.5408 106.486 91.9408C106.006 92.3408 105.766 92.8608 105.766 93.5008C105.766 94.1568 106.006 94.6928 106.486 95.1088C106.966 95.5088 107.59 95.7088 108.358 95.7088C109.11 95.7088 109.726 95.5008 110.206 95.0848C110.702 94.6688 110.95 94.1408 110.95 93.5008C110.95 92.8608 110.702 92.3408 110.206 91.9408C109.726 91.5408 109.11 91.3408 108.358 91.3408ZM108.358 103.581C109.206 103.581 109.918 103.349 110.494 102.885C111.07 102.405 111.358 101.805 111.358 101.085C111.358 100.349 111.07 99.7408 110.494 99.2608C109.918 98.7648 109.206 98.5168 108.358 98.5168C107.494 98.5168 106.774 98.7648 106.198 99.2608C105.622 99.7408 105.334 100.349 105.334 101.085C105.334 101.805 105.622 102.405 106.198 102.885C106.774 103.349 107.494 103.581 108.358 103.581ZM127.951 91.3408C128.495 92.0608 128.911 92.9328 129.199 93.9568C129.487 94.9648 129.631 96.0688 129.631 97.2688C129.631 100.053 129.031 102.205 127.831 103.725C126.631 105.245 124.927 106.005 122.719 106.005C120.991 106.005 119.591 105.581 118.519 104.733C117.463 103.869 116.839 102.661 116.647 101.109H120.031C120.191 101.781 120.511 102.301 120.991 102.669C121.487 103.037 122.119 103.221 122.887 103.221C124.007 103.221 124.855 102.797 125.431 101.949C126.023 101.101 126.319 99.9088 126.319 98.3728V97.9408C126.095 98.2608 125.967 98.4368 125.935 98.4688C125.535 99.0288 125.007 99.4688 124.351 99.7888C123.711 100.093 122.991 100.245 122.191 100.245C121.071 100.245 120.079 100.013 119.215 99.5488C118.351 99.0848 117.679 98.4288 117.199 97.5808C116.735 96.7328 116.503 95.7488 116.503 94.6288C116.503 93.5248 116.759 92.5408 117.271 91.6768C117.799 90.7968 118.535 90.1168 119.479 89.6368C120.439 89.1408 121.535 88.8928 122.767 88.8928C123.887 88.8928 124.879 89.1088 125.743 89.5408C126.623 89.9568 127.359 90.5568 127.951 91.3408ZM119.935 94.5808C119.935 95.4448 120.191 96.1568 120.703 96.7168C121.215 97.2768 121.895 97.5568 122.743 97.5568C123.591 97.5568 124.279 97.2768 124.807 96.7168C125.351 96.1568 125.623 95.4448 125.623 94.5808C125.623 93.7168 125.359 93.0048 124.831 92.4448C124.319 91.8848 123.639 91.6048 122.791 91.6048C121.943 91.6048 121.255 91.8848 120.727 92.4448C120.199 93.0048 119.935 93.7168 119.935 94.5808ZM130.404 104.013C130.404 103.421 130.596 102.941 130.98 102.573C131.364 102.189 131.852 101.997 132.444 101.997C133.02 101.997 133.5 102.189 133.884 102.573C134.284 102.957 134.484 103.437 134.484 104.013C134.484 104.589 134.284 105.069 133.884 105.453C133.5 105.821 133.02 106.005 132.444 106.005C131.852 106.005 131.364 105.821 130.98 105.453C130.596 105.069 130.404 104.589 130.404 104.013ZM136.719 103.365C136.223 102.645 135.839 101.797 135.567 100.821C135.311 99.8448 135.183 98.7808 135.183 97.6288C135.183 95.7888 135.463 94.2128 136.023 92.9008C136.583 91.5888 137.383 90.5968 138.423 89.9248C139.463 89.2368 140.687 88.8928 142.095 88.8928C143.695 88.8928 145.047 89.3328 146.151 90.2128C147.255 91.0928 147.903 92.2848 148.095 93.7888H144.687C144.527 93.1168 144.199 92.5968 143.703 92.2288C143.207 91.8608 142.583 91.6768 141.831 91.6768C140.743 91.6768 139.903 92.1008 139.311 92.9488C138.735 93.7808 138.447 94.9728 138.447 96.5248V96.9328L138.663 96.5728C139.063 95.9648 139.607 95.4848 140.295 95.1328C140.999 94.7808 141.775 94.6048 142.623 94.6048C143.743 94.6048 144.727 94.8448 145.575 95.3248C146.439 95.8048 147.111 96.4768 147.591 97.3408C148.071 98.1888 148.311 99.1728 148.311 100.293C148.311 101.429 148.047 102.429 147.519 103.293C147.007 104.157 146.271 104.829 145.311 105.309C144.367 105.773 143.279 106.005 142.047 106.005C140.895 106.005 139.863 105.781 138.951 105.333C138.055 104.869 137.311 104.213 136.719 103.365ZM144.879 100.293C144.879 99.4128 144.623 98.6928 144.111 98.1328C143.599 97.5728 142.919 97.2928 142.071 97.2928C141.223 97.2928 140.527 97.5728 139.983 98.1328C139.455 98.6928 139.191 99.4128 139.191 100.293C139.191 101.173 139.447 101.893 139.959 102.453C140.487 103.013 141.175 103.293 142.023 103.293C142.871 103.293 143.559 103.013 144.087 102.453C144.615 101.877 144.879 101.157 144.879 100.293Z" fill="#FF240B" />
	<path d="M155.264 100.911C154.849 100.911 154.48 100.819 154.155 100.634C153.836 100.449 153.587 100.192 153.407 99.8612C153.228 99.5308 153.139 99.15 153.139 98.7188C153.139 98.2876 153.228 97.9068 153.407 97.5764C153.587 97.246 153.836 96.9884 154.155 96.8036C154.48 96.6188 154.849 96.5264 155.264 96.5264C155.678 96.5264 156.045 96.6188 156.364 96.8036C156.689 96.9884 156.941 97.246 157.12 97.5764C157.299 97.9068 157.389 98.2876 157.389 98.7188C157.389 99.15 157.299 99.5308 157.12 99.8612C156.941 100.192 156.689 100.449 156.364 100.634C156.045 100.819 155.678 100.911 155.264 100.911ZM155.264 100.298C155.544 100.298 155.79 100.231 156.003 100.096C156.221 99.962 156.389 99.7744 156.507 99.5336C156.625 99.2928 156.683 99.0212 156.683 98.7188C156.683 98.4164 156.625 98.1448 156.507 97.904C156.389 97.6632 156.221 97.4756 156.003 97.3412C155.79 97.2068 155.544 97.1396 155.264 97.1396C154.984 97.1396 154.735 97.2068 154.516 97.3412C154.303 97.4756 154.138 97.6632 154.021 97.904C153.903 98.1448 153.844 98.4164 153.844 98.7188C153.844 99.0212 153.903 99.2928 154.021 99.5336C154.138 99.7744 154.303 99.962 154.516 100.096C154.735 100.231 154.984 100.298 155.264 100.298ZM158.912 96.0608H165.002V97.1808H160.13V100.457H164.162V101.577H160.13V105.861H158.912V96.0608Z" fill="black" />
	<path d="M1.7662 149.19C-2.19983 125.564 0.544189 101.299 9.68613 79.1551L15.831 81.6919C7.16386 102.686 4.56238 125.691 8.3224 148.09L1.7662 149.19Z" fill="#D9D9D9" />
	<path d="M1.7662 149.19C-2.72461 122.438 1.39993 94.9502 13.5447 70.6939L19.4892 73.6702C7.97517 96.6667 4.06483 122.727 8.3224 148.09L1.7662 149.19Z" fill="#28D4EC" />
	<path d="M18.7079 61.3724C32.8282 38.2103 53.9419 20.1331 79.0026 9.74918L81.5474 15.8908C57.7883 25.7354 37.7711 42.8737 24.3842 64.8328L18.7079 61.3724Z" fill="#28EC30" />
	<path d="M89.8086 5.83038C115.7 -2.26346 143.493 -1.92241 169.178 6.80432L167.039 13.0989C142.688 4.82538 116.339 4.50204 91.7921 12.1755L89.8086 5.83038Z" fill="#FFDA3D" />
	<path d="M241.516 68.8543C254.05 92.9115 258.618 120.329 254.559 147.15L247.986 146.156C251.834 120.727 247.504 94.7339 235.62 71.9262L241.516 68.8543Z" fill="#FF0101" />
	<path d="M176.061 9.36539C201.203 19.5508 222.459 37.4605 236.762 60.5102L231.113 64.0154C217.553 42.1628 197.401 25.1833 173.565 15.5269L176.061 9.36539Z" fill="#FFAA30" />
	<path d="M238.542 145.024C240.787 129.045 239.542 112.769 234.892 97.318C230.241 81.8666 222.296 67.607 211.604 55.5219C200.912 43.4367 187.727 33.8132 172.958 27.3144C158.188 20.8157 142.185 17.5962 126.052 17.8778C109.918 18.1595 94.0375 21.9355 79.5038 28.9457C64.9701 35.9559 52.1289 46.0337 41.8651 58.4847C31.6014 70.9356 24.1589 85.4638 20.0507 101.068C15.9424 116.672 15.266 132.982 18.068 148.873L47.1253 143.749C45.0639 132.059 45.5616 120.06 48.5839 108.58C51.6063 97.1005 57.0815 86.4125 64.6324 77.2526C72.1832 68.0926 81.6302 60.6786 92.3223 55.5213C103.014 50.3641 114.698 47.5861 126.567 47.379C138.436 47.1718 150.209 49.5403 161.074 54.3213C171.94 59.1023 181.64 66.1821 189.506 75.0729C197.372 83.9637 203.217 94.4541 206.638 105.821C210.059 117.189 210.975 129.163 209.323 140.918L238.542 145.024Z" fill="#E2E8F0" />
	<path d="M17.9177 148C15.4867 133.544 15.927 118.75 19.2132 104.464C22.4995 90.1782 28.5674 76.6793 37.0705 64.7383C45.5737 52.7973 56.3456 42.648 68.7711 34.8699C81.1966 27.0919 95.0324 21.8374 109.489 19.4064C123.945 16.9755 138.738 17.4157 153.024 20.7019C167.311 23.9882 180.809 30.0561 192.75 38.5593C204.692 47.0624 214.841 57.8343 222.619 70.2598C230.397 82.6853 235.651 96.5212 238.082 110.977L208.985 115.87C207.197 105.235 203.331 95.0565 197.609 85.9153C191.887 76.7741 184.42 68.8495 175.636 62.5939C166.851 56.3383 156.92 51.8742 146.41 49.4566C135.9 47.039 125.017 46.7151 114.382 48.5035C103.746 50.2919 93.5677 54.1575 84.4265 59.8797C75.2853 65.6018 67.3607 73.0684 61.1051 81.8532C54.8495 90.638 50.3855 100.569 47.9679 111.079C45.5502 121.589 45.2264 132.472 47.0148 143.107L17.9177 148Z" fill="url(#paint0_linear_1_10044)" />
	<defs>
		<linearGradient id="paint0_linear_1_10044" x1="223.5" y1="90.9995" x2="29.5" y2="133.5" gradientUnits="userSpaceOnUse">
			<stop stop-color="#FF0000" />
			<stop offset="0.229167" stop-color="#FF9B2B" />
			<stop offset="0.515625" stop-color="#FFEC42" />
			<stop offset="0.723958" stop-color="#28EC30" />
			<stop offset="0.994792" stop-color="#28D4EC" />
		</linearGradient>
	</defs>
</svg>
