<svg width="30" height="22" viewBox="0 0 30 22" fill="none" xmlns="http://www.w3.org/2000/svg">
	<path d="M22.6761 9.23261C23.0496 11.7122 22.4627 13.8225 20.8621 15.6691C19.2614 17.4628 17.1805 18.3597 14.7796 18.4125C12.6987 18.4652 10.8313 17.8849 9.23059 16.5659C6.98967 14.6667 6.13599 12.2398 6.50947 9.28537C6.2427 9.28537 6.02927 9.23261 5.81585 9.23261C4.74875 9.23261 3.62828 9.28537 2.56118 9.23261C0.907163 9.1271 0.00012207 10.3405 0.00012207 11.765C0.0534774 14.1918 0.00012207 16.6187 0.00012207 19.0983C0.00012207 20.8921 0.853807 21.7362 2.66789 21.7362C8.80375 21.7362 14.9396 21.7362 21.0221 21.7362C22.9429 21.7362 24.9171 21.7362 26.8379 21.7362C28.1717 21.7362 29.1321 20.8393 29.1855 19.5731C29.2388 16.8297 29.1855 14.1391 29.1855 11.3957C29.1855 10.3405 28.3852 9.39089 27.4248 9.33813C25.8775 9.17985 24.3302 9.23261 22.6761 9.23261ZM14.5661 16.5659C15.0463 16.5132 15.5265 16.4604 16.0067 16.4077C19.955 15.7218 22.0892 11.3957 20.1684 7.96642C18.7278 5.48681 17.1272 3.05995 15.6332 0.633091C15.0997 -0.158276 14.1393 -0.158276 13.6591 0.633091C12.1118 3.05995 10.5645 5.53957 9.07053 7.96642C8.32355 9.17985 8.16349 10.4988 8.48362 11.8705C9.12388 14.7194 11.5782 16.5132 14.5661 16.5659Z" fill="white" />
	<path d="M22.676 9.23262C24.3301 9.23262 25.8774 9.17986 27.4247 9.23262C28.3851 9.28538 29.1854 10.235 29.1854 11.2902C29.2388 14.0336 29.2388 16.7242 29.1854 19.4676C29.1854 20.7338 28.225 21.6307 26.8378 21.6307C24.917 21.6307 22.9428 21.6307 21.022 21.6307C14.8862 21.6307 8.7503 21.6307 2.6678 21.6307C0.853715 21.6307 2.93162e-05 20.7866 2.93162e-05 18.9928C2.93162e-05 16.566 0.0533847 14.1391 2.93162e-05 11.6595C-0.053326 10.2878 0.853715 9.02159 2.56109 9.1271C3.62819 9.17986 4.74865 9.1271 5.81576 9.1271C6.02918 9.1271 6.2426 9.1271 6.50938 9.17986C6.13589 12.1343 6.98958 14.5612 9.2305 16.4604C10.8312 17.7794 12.6986 18.3597 14.7795 18.307C17.2338 18.2542 19.2613 17.4101 20.862 15.5636C22.516 13.8753 23.0495 11.7122 22.676 9.23262Z" fill="white" />
	<path d="M14.566 16.5659C11.5247 16.5132 9.12374 14.6667 8.43012 11.8705C8.10999 10.4988 8.27006 9.1271 9.01703 7.96642C10.511 5.48681 12.0583 3.05995 13.6056 0.633091C14.1391 -0.158276 15.0995 -0.158276 15.5797 0.633091C17.127 3.05995 18.7277 5.48681 20.1149 7.96642C22.0891 11.3957 19.9015 15.7218 15.9532 16.4077C15.5264 16.4604 15.0462 16.5132 14.566 16.5659Z" fill="white" />
</svg>
